<svg id="Layer_5" enable-background="new 0 0 64 64" height="512" viewBox="0 0 64 64" width="512" xmlns="http://www.w3.org/2000/svg"><path d="m23 34 1 4h-8l1-4h3z" fill="#ccd1d9"/><path d="m50 46v12c0 2.21-1.79 4-4 4h-40c-2.21 0-4-1.79-4-4v-16c0-2.21 1.79-4 4-4h10 8 6.34c1.06 0 2.08.42 2.83 1.17l2.83 2.83h10c2.21 0 4 1.79 4 4z" fill="#969faa"/><path d="m34 46h12v12h-12z" fill="#ff826e"/><path d="m6 46h24v12h-24z" fill="#ff826e"/><path d="m26 54v4h-16v-4h4 4 4z" fill="#ccd1d9"/><path d="m62 13v6l-2.56.63c-.21.66-.48 1.28-.79 1.88l1.37 2.27-4.24 4.24-2.27-1.37c-.6.31-1.22.58-1.88.79l-.63 2.56h-6l-.63-2.56c-.66-.21-1.28-.48-1.88-.79l-2.27 1.37-4.24-4.24 1.37-2.27c-.31-.6-.58-1.22-.79-1.88l-2.56-.63v-3-3l2.56-.63c.21-.66.48-1.28.79-1.88l-1.37-2.27 4.24-4.24 2.27 1.37c.6-.31 1.22-.58 1.88-.79l.63-2.56h6l.63 2.56c.66.21 1.28.48 1.88.79l2.27-1.37 4.24 4.24-1.37 2.27c.31.6.58 1.22.79 1.88zm-6 3c0-4.42-3.58-8-8-8s-8 3.58-8 8 3.58 8 8 8 8-3.58 8-8z" fill="#ffc729"/><path d="m48 8c4.42 0 8 3.58 8 8s-3.58 8-8 8-8-3.58-8-8 3.58-8 8-8zm4 8c0-2.21-1.79-4-4-4s-4 1.79-4 4 1.79 4 4 4 4-1.79 4-4z" fill="#fcd770"/><path d="m63 19.784v-7.567l-2.794-.687c-.123-.333-.262-.665-.417-.995l1.493-2.466-5.352-5.351-2.465 1.492c-.33-.154-.662-.293-.995-.416l-.686-2.794h-7.567l-.687 2.794c-.332.123-.664.262-.995.417l-2.466-1.493-5.352 5.352 1.493 2.466c-.154.331-.293.663-.417.995l-2.793.685v2.784h-19c-1.654 0-3 1.346-3 3s1.346 3 3 3h8c.551 0 1 .449 1 1s-.449 1-1 1h-18c-1.654 0-3 1.346-3 3s1.346 3 3 3h14c.551 0 1 .449 1 1v3h-2.781l-1 4h-9.219c-2.757 0-5 2.243-5 5v16c0 2.757 2.243 5 5 5h40c2.757 0 5-2.243 5-5v-12c0-2.757-2.243-5-5-5h-9.586l-2.536-2.536c-.944-.944-2.199-1.464-3.535-1.464h-5.562l-1-4h-2.781v-3c0-1.654-1.346-3-3-3h-14c-.551 0-1-.449-1-1s.449-1 1-1h18c1.654 0 3-1.346 3-3s-1.346-3-3-3h-8c-.551 0-1-.449-1-1s.449-1 1-1h19v2.784l2.794.687c.123.333.262.665.416.995l-1.492 2.466 5.351 5.351 2.466-1.493c.331.155.663.293.994.417l.687 2.793h7.567l.687-2.794c.332-.123.664-.262.995-.417l2.466 1.493 5.352-5.352-1.493-2.466c.154-.33.293-.662.417-.995zm-30.536 20.094 3.122 3.122h10.414c1.654 0 3 1.346 3 3v12c0 1.654-1.346 3-3 3h-40c-1.654 0-3-1.346-3-3v-16c0-1.654 1.346-3 3-3h24.343c.79 0 1.563.32 2.121.878zm-9.745-2.878h-5.438l.5-2h4.438zm36.04-13.375-3.134 3.134-2.073-1.255-.498.258c-.574.297-1.155.541-1.727.722l-.535.17-.576 2.346h-4.433l-.576-2.345-.535-.17c-.572-.182-1.153-.424-1.728-.722l-.498-.258-2.073 1.255-3.134-3.134 1.255-2.073-.258-.498c-.297-.572-.54-1.153-.722-1.727l-.17-.535-2.344-.577v-4.433l2.345-.576.17-.535c.182-.572.425-1.153.722-1.727l.258-.498-1.255-2.073 3.134-3.134 2.073 1.255.498-.258c.574-.297 1.155-.541 1.727-.722l.535-.17.577-2.345h4.433l.576 2.345.535.17c.574.182 1.155.425 1.727.722l.498.258 2.073-1.255 3.134 3.134-1.255 2.073.259.499c.296.571.539 1.152.722 1.727l.17.535 2.344.576v4.433l-2.345.576-.17.535c-.183.575-.425 1.155-.722 1.727l-.259.499z"/><path d="m48 7c-4.962 0-9 4.038-9 9s4.038 9 9 9 9-4.038 9-9-4.038-9-9-9zm0 16c-3.86 0-7-3.14-7-7s3.14-7 7-7 7 3.14 7 7-3.14 7-7 7z"/><path d="m48 11c-2.757 0-5 2.243-5 5s2.243 5 5 5 5-2.243 5-5-2.243-5-5-5zm0 8c-1.654 0-3-1.346-3-3s1.346-3 3-3 3 1.346 3 3-1.346 3-3 3z"/><path d="m47 45h-14v14h14zm-2 4h-2v-2h2zm-6 4v-2h2v2zm2 2v2h-2v-2zm-4-2h-2v-2h2zm2-4v-2h2v2zm4 2h2v2h-2zm-6-4v2h-2v-2zm-2 8h2v2h-2zm8 2v-2h2v2z"/><path d="m5 59h26v-14h-26zm2-4h2v2h-2zm18-2h-2v-2h2zm2-2h2v2h-2zm-8 2v-2h2v2zm-2 0h-2v-2h2zm8 2v2h-14v-2zm-2-6v-2h2v2zm-2 0h-2v-2h2zm-4 0h-2v-2h2zm-4 0h-2v-2h2zm0 2v2h-2v-2zm-4 2h-2v-2h2zm18 4v-2h2v2zm2-8h-2v-2h2zm-20-2v2h-2v-2z"/><path d="m5 41h2v2h-2z"/><path d="m9 41h2v2h-2z"/><path d="m13 41h2v2h-2z"/><path d="m29 41h2v2h-2z"/><path d="m25 41h2v2h-2z"/><path d="m17 5h2v8h-2z"/><path d="m29 5h2v8h-2z"/><path d="m11 13h2c1.103 0 2-.897 2-2v-4c0-1.103-.897-2-2-2h-2c-1.103 0-2 .897-2 2v4c0 1.103.897 2 2 2zm0-6h2l.001 4h-2.001z"/><path d="m23 13h2c1.103 0 2-.897 2-2v-4c0-1.103-.897-2-2-2h-2c-1.103 0-2 .897-2 2v4c0 1.103.897 2 2 2zm0-6h2l.001 4h-2.001z"/></svg>